<?xml version="1.0" encoding="utf-8"?>
<!-- Generator: Adobe Illustrator 15.0.0, SVG Export Plug-In . SVG Version: 6.00 Build 0)  -->
<!DOCTYPE svg PUBLIC "-//W3C//DTD SVG 1.1//EN" "http://www.w3.org/Graphics/SVG/1.1/DTD/svg11.dtd">
<svg version="1.1" id="Capa_1" xmlns="http://www.w3.org/2000/svg" xmlns:xlink="http://www.w3.org/1999/xlink" x="0px" y="0px"
	 width="612px" height="792px" viewBox="0 0 612 792" enable-background="new 0 0 612 792" xml:space="preserve">
<g>
	<g>
		<polygon fill="#FFFFFF" points="81.621,137.813 197.227,137.813 197.227,90 0,90 0,287.227 47.813,287.227 47.813,171.621 
			211.57,335.378 245.378,301.57 		"/>
	</g>
</g>
<g>
	<g>
		<polygon fill="#FFFFFF" points="245.378,490.43 211.57,456.621 47.813,620.379 47.813,504.773 0,504.773 0,702 197.227,702 
			197.227,654.188 81.621,654.188 		"/>
	</g>
</g>
<g>
	<g>
		<polygon fill="#FFFFFF" points="414.773,90 414.773,137.813 530.379,137.813 366.621,301.57 400.43,335.378 564.188,171.621 
			564.188,287.227 612,287.227 612,90 		"/>
	</g>
</g>
<g>
	<g>
		<polygon fill="#FFFFFF" points="564.188,504.773 564.188,620.379 400.43,456.621 366.621,490.43 530.379,654.188 414.773,654.188 
			414.773,702 612,702 612,504.773 		"/>
	</g>
</g>
</svg>
