<?xml version="1.0" encoding="utf-8"?>
<!-- Generator: Adobe Illustrator 15.0.0, SVG Export Plug-In . SVG Version: 6.00 Build 0)  -->
<!DOCTYPE svg PUBLIC "-//W3C//DTD SVG 1.1//EN" "http://www.w3.org/Graphics/SVG/1.1/DTD/svg11.dtd">
<svg version="1.1" id="Layer_1" xmlns="http://www.w3.org/2000/svg" xmlns:xlink="http://www.w3.org/1999/xlink" x="0px" y="0px"
	 width="437px" height="527px" viewBox="0 0 437 527" enable-background="new 0 0 437 527" xml:space="preserve">
<title></title>
<g id="Mic">
	<path fill="#FFFFFF" d="M216,326c52.813,0,95.625-42.813,95.625-95.625v-114.75C311.625,62.812,268.813,20,216,20
		s-95.625,42.813-95.625,95.625v114.75C120.375,283.188,163.188,326,216,326z"/>
	<path fill="#FFFFFF" d="M369,230.375c0-10.563-8.563-19.125-19.125-19.125s-19.125,8.563-19.125,19.125
		c0,63.375-51.375,114.75-114.75,114.75s-114.75-51.375-114.75-114.75c0-10.563-8.563-19.125-19.125-19.125S63,219.813,63,230.375
		c0.07,77.052,57.427,142.03,133.875,151.661v58.714h-66.938c-10.563,0-19.125,8.563-19.125,19.125S119.375,479,129.938,479h172.125
		c10.563,0,19.125-8.563,19.125-19.125s-8.563-19.125-19.125-19.125h-66.938v-58.714C311.572,372.405,368.93,307.427,369,230.375z"
		/>
</g>
</svg>
