<?xml version="1.0" encoding="utf-8"?>
<!-- Generator: Adobe Illustrator 15.0.0, SVG Export Plug-In . SVG Version: 6.00 Build 0)  -->
<!DOCTYPE svg PUBLIC "-//W3C//DTD SVG 1.1//EN" "http://www.w3.org/Graphics/SVG/1.1/DTD/svg11.dtd">
<svg version="1.1" id="Layer_1" xmlns="http://www.w3.org/2000/svg" xmlns:xlink="http://www.w3.org/1999/xlink" x="0px" y="0px"
	 width="612px" height="792px" viewBox="0 0 612 792" enable-background="new 0 0 612 792" xml:space="preserve">
<g id="info">
</g>
<g id="icons">
	<path id="settings" fill="#FFFFFF" d="M566.1,457.2l-30.6-17.853c-33.15-20.397-33.15-68.85,0-89.25l30.6-17.85
		c25.5-15.3,33.15-45.9,17.853-68.85l-25.5-43.35c-15.3-25.5-45.9-33.15-68.853-17.85L459,220.05c-33.15,20.4-76.5-5.1-76.5-43.35
		V141c0-28.05-22.95-51-51-51h-51c-28.05,0-51,22.95-51,51v33.15c0,38.25-43.35,63.75-76.5,43.35l-30.6-15.3
		c-25.5-15.3-56.1-5.1-68.85,17.85l-25.5,43.35c-12.75,25.5-5.1,56.1,17.85,71.4l30.6,17.85c33.15,17.85,33.15,68.85,0,86.7
		L45.9,457.2c-25.5,15.3-33.15,45.897-17.85,68.85l25.5,43.353c15.3,25.5,45.9,33.147,68.85,17.85l30.6-15.3
		c33.15-20.4,76.5,5.1,76.5,43.35V651c0,28.05,22.95,51,51,51h51c28.05,0,51-22.95,51-51v-33.15c0-38.25,43.35-63.75,76.5-43.35
		l30.6,17.85c25.5,15.303,56.103,5.103,68.853-17.85l25.5-43.35C596.7,503.1,589.05,472.5,566.1,457.2z M306,498
		c-56.1,0-102-45.9-102-102c0-56.1,45.9-102,102-102c56.1,0,102,45.9,102,102C408,452.1,362.1,498,306,498z"/>
</g>
</svg>
