<?xml version="1.0" encoding="utf-8"?>
<!-- Generator: Adobe Illustrator 15.0.0, SVG Export Plug-In . SVG Version: 6.00 Build 0)  -->
<!DOCTYPE svg PUBLIC "-//W3C//DTD SVG 1.1//EN" "http://www.w3.org/Graphics/SVG/1.1/DTD/svg11.dtd">
<svg version="1.1" xmlns="http://www.w3.org/2000/svg" xmlns:xlink="http://www.w3.org/1999/xlink" x="0px" y="0px"
	 width="16.042px" height="15.563px" viewBox="0 0 16.042 15.563" enable-background="new 0 0 16.042 15.563" xml:space="preserve">
<g id="Layer_1" xmlns:sketch="http://www.bohemiancoding.com/sketch/ns" display="none">
	<title></title>
	<desc></desc>
	<g id="Page-1" display="inline">
		<g id="Core" transform="translate(-129.000000, -509.000000)">
			<g id="view-module" transform="translate(129.500000, 509.500000)">
				<path id="Shape" d="M0,6h5V0H0V6L0,6z M0,13h5V7H0V13L0,13z M6,13h5V7H6V13L6,13z M12,13h5V7h-5V13L12,13z M6,6h5V0H6V6L6,6z
					 M12,0v6h5V0H12L12,0z"/>
			</g>
		</g>
	</g>
</g>
<g id="Layer_2">
	<rect y="0.091" display="none" fill="#FFFFFF" width="5.514" height="6.345"/>
	<rect x="1" y="1.091" fill="#FFFFFF" width="6.516" height="6.345"/>
	<rect x="1.5" y="54.5" display="none" fill="#FFFFFF" width="5.188" height="5.969"/>
	<rect x="7.521" y="49.5" display="none" fill="#FFFFFF" width="5.188" height="5.969"/>
	<rect y="7.532" display="none" fill="#FFFFFF" width="5.514" height="6.345"/>
	<rect x="6.4" y="7.549" display="none" fill="#FFFFFF" width="5.514" height="6.345"/>
	<rect x="9" y="1.091" fill="#FFFFFF" width="6.516" height="6.345"/>
	<rect x="1" y="8.655" fill="#FFFFFF" width="6.516" height="6.345"/>
	<rect x="9" y="8.655" fill="#FFFFFF" width="6.516" height="6.345"/>
</g>
</svg>
