<?xml version="1.0" encoding="utf-8"?>
<!-- Generator: Adobe Illustrator 15.0.0, SVG Export Plug-In . SVG Version: 6.00 Build 0)  -->
<!DOCTYPE svg PUBLIC "-//W3C//DTD SVG 1.1//EN" "http://www.w3.org/Graphics/SVG/1.1/DTD/svg11.dtd">
<svg version="1.1" id="Layer_1" xmlns="http://www.w3.org/2000/svg" xmlns:xlink="http://www.w3.org/1999/xlink" x="0px" y="0px"
	 width="612px" height="792px" viewBox="0 0 612 792" enable-background="new 0 0 612 792" xml:space="preserve">
<g id="Layer_2">
	<rect x="-52.5" y="-28.5" display="none" width="689" height="882"/>
</g>
<g id="Layer_1_1_">
	<path fill="#FFFFFF" d="M387.6,579.6H40.8C18.258,579.6,0,561.342,0,538.8V253.2c0-22.542,18.258-40.8,40.8-40.8h346.8
		c22.542,0,40.802,18.258,40.802,40.8v285.6C428.4,561.342,410.142,579.6,387.6,579.6z"/>
	<polygon fill="#FFFFFF" points="469.2,398 612,398 612,275.6 578.115,260.3 469.2,357.2 	"/>
	<circle fill="#FFFFFF" cx="591.6" cy="273.6" r="20.4"/>
	<polygon fill="#FFFFFF" points="469.2,394 612,394 612,516.4 578.115,531.7 469.2,434.8 	"/>
	<circle fill="#FFFFFF" cx="591.6" cy="518.4" r="20.4"/>
	<rect x="469.2" y="380.5" fill="#FFFFFF" width="142.8" height="47"/>
</g>
</svg>
