<?xml version="1.0" encoding="utf-8"?>
<!-- Generator: Adobe Illustrator 15.0.0, SVG Export Plug-In . SVG Version: 6.00 Build 0)  -->
<!DOCTYPE svg PUBLIC "-//W3C//DTD SVG 1.1//EN" "http://www.w3.org/Graphics/SVG/1.1/DTD/svg11.dtd">
<svg version="1.1" id="Layer_1" xmlns="http://www.w3.org/2000/svg" xmlns:xlink="http://www.w3.org/1999/xlink" x="0px" y="0px"
	 width="444px" height="444px" viewBox="0 0 444 444" enable-background="new 0 0 444 444" xml:space="preserve">
<path fill="#FFFFFF" d="M7,0h181c3.867,0,7,3.133,7,7v181c0,3.867-3.133,7-7,7H7c-3.867,0-7-3.133-7-7V7C0,3.133,3.133,0,7,0z"/>
<path fill="#FFFFFF" d="M256,0h181c3.867,0,7,3.133,7,7v181c0,3.867-3.133,7-7,7H256c-3.867,0-7-3.133-7-7V7
	C249,3.133,252.133,0,256,0z"/>
<path fill="#FFFFFF" d="M7,249h181c3.867,0,7,3.133,7,7v181c0,3.867-3.133,7-7,7H7c-3.867,0-7-3.133-7-7V256
	C0,252.133,3.133,249,7,249z"/>
<path fill="#FFFFFF" d="M256,249h181c3.867,0,7,3.133,7,7v181c0,3.867-3.133,7-7,7H256c-3.867,0-7-3.133-7-7V256
	C249,252.133,252.133,249,256,249z"/>
</svg>
