<?xml version="1.0" encoding="utf-8"?>
<!-- Generator: Adobe Illustrator 15.0.0, SVG Export Plug-In . SVG Version: 6.00 Build 0)  -->
<!DOCTYPE svg PUBLIC "-//W3C//DTD SVG 1.1//EN" "http://www.w3.org/Graphics/SVG/1.1/DTD/svg11.dtd">
<svg version="1.1" id="Capa_1" xmlns="http://www.w3.org/2000/svg" xmlns:xlink="http://www.w3.org/1999/xlink" x="0px" y="0px"
	 width="612px" height="792px" viewBox="0 0 612 792" enable-background="new 0 0 612 792" xml:space="preserve">
<g>
	<g>
		<path fill="#FFFFFF" d="M596.23,541.569l-76.062-76.078c-20.294-20.294-55.75-20.329-76.078,0l-12.683,12.684l152.144,152.136
			l12.679-12.679C617.29,596.57,617.22,562.522,596.23,541.569z"/>
	</g>
</g>
<g>
	<g>
		<path fill="#FFFFFF" d="M405.349,502.824c-16.005,12.399-38.838,11.904-53.463-2.753l-150.39-150.494
			c-14.658-14.658-15.152-37.508-2.753-53.474L46.949,144.318c-65.301,76.118-62.748,190.811,9.324,262.883l237.99,238.094
			c69.161,69.158,182.446,78.331,262.887,9.319L405.349,502.824z"/>
	</g>
</g>
<g>
	<g>
		<path fill="#FFFFFF" d="M236.077,181.311l-76.061-76.078c-20.294-20.294-55.75-20.329-76.078,0l-12.684,12.684l152.144,152.135
			l12.678-12.68C257.136,236.313,257.067,202.266,236.077,181.311z"/>
	</g>
</g>
</svg>
