<?xml version="1.0" encoding="utf-8"?>
<!-- Generator: Adobe Illustrator 24.0.0, SVG Export Plug-In . SVG Version: 6.00 Build 0)  -->
<svg version="1.1" id="Layer_1" xmlns:sketch="http://www.bohemiancoding.com/sketch/ns"
	 xmlns="http://www.w3.org/2000/svg" xmlns:xlink="http://www.w3.org/1999/xlink" x="0px" y="0px" viewBox="0 0 32 32"
	 style="enable-background:new 0 0 32 32;" xml:space="preserve">
<style type="text/css">
	.st0{fill-rule:evenodd;clip-rule:evenodd;fill:#FFFFFF;}
</style>
<title></title>
<desc></desc>
<g id="Page-1">
	<g id="icon-3-high-five">
		<path id="high-five" class="st0" d="M28.1,21.5c0,4.7-3.8,8.5-8.5,8.5c-3.1,0-6.4-1.5-8.7-5.6c-3.3-5.9-7.4-9.8-5.4-11.8
			c1.4-1.4,3.7-0.1,5.6,1.8l0,0V6.5c0-1.4,1.1-2.5,2.5-2.5c0.6,0,1.1,0.2,1.5,0.5c0-1.4,1.1-2.5,2.5-2.5c1.4,0,2.5,1.1,2.5,2.5
			C20.5,4.2,21.1,4,21.6,4c1.4,0,2.5,1.1,2.5,2.5v1C24.5,7.2,25.1,7,25.6,7c1.4,0,2.5,1.1,2.5,2.5V21.5L28.1,21.5z M19.6,29
			c-3.8,0-6-2.1-7.8-5C8,17.4,5.2,14.4,6.2,13.3c1.1-1.1,3.8,1.3,5.9,3.5V6.5c0-0.8,0.7-1.5,1.5-1.5c0.8,0,1.5,0.7,1.5,1.5V16h1V4.5
			c0-0.8,0.7-1.5,1.5-1.5c0.8,0,1.5,0.7,1.5,1.5V15h1V6.5c0-0.8,0.7-1.5,1.5-1.5c0.8,0,1.5,0.7,1.5,1.5V16h1V9.5
			c0-0.8,0.7-1.5,1.5-1.5c0.8,0,1.5,0.7,1.5,1.5v8.3v3.7C27.1,25.6,23.8,29,19.6,29L19.6,29z"/>
	</g>
</g>
</svg>
